<svg version="1.1" viewBox="0.0 0.0 243.39370078740157 100.0" fill="none" stroke="none" stroke-linecap="square" stroke-miterlimit="10" xmlns:xlink="http://www.w3.org/1999/xlink" xmlns="http://www.w3.org/2000/svg"><clipPath id="p.0"><path d="m0 0l243.3937 0l0 100.0l-243.3937 0l0 -100.0z" clip-rule="nonzero"/></clipPath><g clip-path="url(#p.0)"><path fill="#000000" fill-opacity="0.0" d="m0 0l243.3937 0l0 100.0l-243.3937 0z" fill-rule="evenodd"/><path fill="#000000" fill-opacity="0.0" d="m0 0l237.19685 0l0 63.811024l-237.19685 0z" fill-rule="evenodd"/><path fill="#f3f3f3" d="m40.64897 71.26813q-3.453125 0 -5.765625 -1.34375q-2.296875 -1.34375 -3.75 -3.671875q-1.4375 -2.34375 -2.046875 -5.53125q-0.59375 -3.203125 -0.59375 -6.984375q0 -8.328125 3.03125 -13.03125q3.046875 -4.703125 9.1875 -4.703125q1.859375 0 3.328125 0.453125q1.46875 0.453125 2.75 1.15625l-1.40625 4.546875q-1.984375 -1.28125 -4.421875 -1.28125q-3.453125 0 -5.09375 3.140625q-1.625 3.125 -1.625 9.71875q0 2.75 0.3125 5.09375q0.328125 2.328125 1.125 4.0q0.8125 1.65625 2.125 2.625q1.3125 0.953125 3.359375 0.953125q1.40625 0 2.515625 -0.34375q1.125 -0.359375 2.15625 -0.9375l1.203125 4.28125q-1.015625 0.71875 -2.71875 1.28125q-1.6875 0.578125 -3.671875 0.578125zm12.341965 -0.828125l0 -48.703125l5.515625 -0.953125l0 16.25q1.21875 -0.390625 2.65625 -0.640625q1.4375 -0.25 2.90625 -0.25q2.109375 0 3.96875 0.671875q1.859375 0.671875 3.234375 2.265625q1.375 1.59375 2.171875 4.328125q0.796875 2.71875 0.796875 6.75l0 20.28125l-5.5 0l0 -19.84375q0 -4.984375 -1.28125 -7.28125q-1.28125 -2.3125 -4.796875 -2.3125q-1.859375 0 -4.15625 0.640625l0 28.796875l-5.515625 0zm45.379196 -28.609375q-2.046875 -0.890625 -4.609375 -0.890625q-2.359375 0 -4.40625 0.828125l0 28.671875l-5.515625 0l0 -32.125q1.859375 -0.90625 4.25 -1.5q2.40625 -0.609375 5.296875 -0.609375q1.53125 0 3.0625 0.1875q1.546875 0.1875 2.890625 0.703125l-0.96875 4.734375zm28.038834 11.84375q0 3.96875 -0.703125 7.203125q-0.703125 3.21875 -2.15625 5.53125q-1.4375 2.296875 -3.640625 3.578125q-2.203125 1.28125 -5.21875 1.28125q-3.0 0 -5.25 -1.28125q-2.234375 -1.28125 -3.671875 -3.578125q-1.4375 -2.3125 -2.140625 -5.53125q-0.703125 -3.234375 -0.703125 -7.203125q0 -3.90625 0.703125 -7.171875q0.703125 -3.265625 2.140625 -5.59375q1.4375 -2.34375 3.671875 -3.625q2.25 -1.28125 5.25 -1.28125q3.015625 0 5.21875 1.28125q2.203125 1.28125 3.640625 3.625q1.453125 2.328125 2.15625 5.59375q0.703125 3.265625 0.703125 7.171875zm-5.765625 0q0 -2.8125 -0.328125 -5.140625q-0.3125 -2.34375 -1.015625 -4.03125q-0.703125 -1.703125 -1.859375 -2.625q-1.140625 -0.9375 -2.75 -0.9375q-1.65625 0 -2.78125 0.9375q-1.125 0.921875 -1.859375 2.625q-0.734375 1.6875 -1.0625 4.03125q-0.3125 2.328125 -0.3125 5.140625q0 2.8125 0.3125 5.15625q0.328125 2.328125 1.0625 4.0q0.734375 1.65625 1.859375 2.59375q1.125 0.921875 2.78125 0.921875q1.609375 0 2.75 -0.921875q1.15625 -0.9375 1.859375 -2.59375q0.703125 -1.671875 1.015625 -4.0q0.328125 -2.34375 0.328125 -5.15625zm13.819443 -15.875q2.375 -0.703125 5.125 -1.171875q2.75 -0.484375 5.0625 -0.484375q2.484375 0 4.53125 0.671875q2.0625 0.671875 3.5 2.265625q1.4375 1.59375 2.234375 4.328125q0.796875 2.71875 0.796875 6.75l0 20.28125l-5.5 0l0 -19.84375q0 -4.984375 -1.28125 -7.28125q-1.28125 -2.3125 -4.796875 -2.3125q-1.859375 0 -4.15625 0.640625l0 28.796875l-5.515625 0l0 -32.640625zm52.42607 15.875q0 3.96875 -0.703125 7.203125q-0.703125 3.21875 -2.15625 5.53125q-1.4375 2.296875 -3.640625 3.578125q-2.203125 1.28125 -5.21875 1.28125q-3.0 0 -5.25 -1.28125q-2.234375 -1.28125 -3.671875 -3.578125q-1.4375 -2.3125 -2.140625 -5.53125q-0.703125 -3.234375 -0.703125 -7.203125q0 -3.90625 0.703125 -7.171875q0.703125 -3.265625 2.140625 -5.59375q1.4375 -2.34375 3.671875 -3.625q2.25 -1.28125 5.25 -1.28125q3.015625 0 5.21875 1.28125q2.203125 1.28125 3.640625 3.625q1.453125 2.328125 2.15625 5.59375q0.703125 3.265625 0.703125 7.171875zm-5.765625 0q0 -2.8125 -0.328125 -5.140625q-0.3125 -2.34375 -1.015625 -4.03125q-0.703125 -1.703125 -1.859375 -2.625q-1.140625 -0.9375 -2.75 -0.9375q-1.65625 0 -2.78125 0.9375q-1.125 0.921875 -1.859375 2.625q-0.734375 1.6875 -1.0625 4.03125q-0.3125 2.328125 -0.3125 5.140625q0 2.8125 0.3125 5.15625q0.328125 2.328125 1.0625 4.0q0.734375 1.65625 1.859375 2.59375q1.125 0.921875 2.78125 0.921875q1.609375 0 2.75 -0.921875q1.15625 -0.9375 1.859375 -2.59375q0.703125 -1.671875 1.015625 -4.0q0.328125 -2.34375 0.328125 -5.15625zm18.491318 12.859375q2.4375 0 3.6875 -1.375q1.25 -1.375 1.25 -3.609375q0 -1.40625 -0.515625 -2.390625q-0.515625 -1.0 -1.34375 -1.765625q-0.828125 -0.78125 -1.921875 -1.390625q-1.078125 -0.609375 -2.171875 -1.3125q-1.09375 -0.640625 -2.125 -1.5q-1.015625 -0.859375 -1.8125 -1.984375q-0.796875 -1.125 -1.28125 -2.5625q-0.484375 -1.4375 -0.484375 -3.359375q0 -4.15625 2.59375 -6.71875q2.59375 -2.5625 7.015625 -2.5625q1.859375 0 3.515625 0.484375q1.671875 0.484375 2.75 1.0625l-1.21875 4.40625q-1.140625 -0.640625 -2.296875 -0.953125q-1.15625 -0.328125 -2.5 -0.328125q-2.046875 0 -3.265625 1.1875q-1.21875 1.1875 -1.21875 3.421875q0 1.28125 0.453125 2.21875q0.453125 0.921875 1.1875 1.65625q0.734375 0.734375 1.65625 1.375q0.9375 0.640625 1.953125 1.21875q1.21875 0.703125 2.40625 1.546875q1.1875 0.828125 2.109375 1.953125q0.9375 1.109375 1.5 2.609375q0.578125 1.5 0.578125 3.625q0 4.40625 -2.59375 7.09375q-2.59375 2.6875 -7.578125 2.6875q-2.5625 0 -4.609375 -0.703125q-2.046875 -0.703125 -3.078125 -1.28125l1.15625 -4.546875q0.96875 0.515625 2.59375 1.15625q1.640625 0.640625 3.609375 0.640625z" fill-rule="nonzero"/></g></svg>